<?xml version="1.0" encoding="UTF-8" standalone="no"?>
<svg xmlns="http://www.w3.org/2000/svg" viewBox="0 0 200 200" width="200" height="200">
  <path fill="#ff9eb5" d="M100 20c-5 15-20 25-35 20s-20-20-15-35 20-25 35-20 20 20 15 35zm0 160c5-15 20-25 35-20s20 20 15 35-20 25-35 20-20-20-15-35zm-80-80c15 5 25 20 20 35s-20 20-35 15-25-20-20-35 20-20 35-15zm160 0c-15-5-25-20-20-35s20-20 35-15 25 20 20 35-20 20-35 15zm-113-47c10 10 10 30-5 45s-35 15-45 5-10-30 5-45 35-15 45-5zm66 94c-10-10-10-30 5-45s35-15 45-5 10 30-5 45-35 15-45 5zm-66 0c10-10 30-10 45 5s15 35 5 45-30 10-45-5-15-35-5-45zm66-94c-10 10-30 10-45-5s-15-35-5-45 30-10 45 5 15 35 5 45z"/>
  <path fill="white" d="M100 70c-15 0-30 15-30 30s15 30 30 30 30-15 30-30-15-30-30-30z"/>
</svg> 